<svg width="39" height="39" viewBox="0 0 39 39" fill="none" xmlns="http://www.w3.org/2000/svg">
<path d="M39 22.7658V16.2342L33.8329 15.373C33.5242 14.2992 33.0953 13.2652 32.552 12.2849L35.5979 8.02069L30.9793 3.4021L26.7151 6.448C25.7347 5.9046 24.7008 5.47568 23.627 5.16712L22.7658 0H16.2342L15.373 5.16712C14.2992 5.47575 13.2652 5.90468 12.2849 6.448L8.02069 3.4021L3.4021 8.02069L6.448 12.2849C5.9046 13.2653 5.47568 14.2992 5.16712 15.373L0 16.2342V22.7658L5.16712 23.627C5.47575 24.7008 5.90468 25.7348 6.448 26.7151L3.4021 30.9793L8.02069 35.5979L12.2849 32.552C13.2653 33.0954 14.2992 33.5243 15.373 33.833L16.2342 39H22.7658L23.627 33.8329C24.7008 33.5242 25.7347 33.0954 26.715 32.5519L30.9792 35.5978L35.5978 30.9792L32.5519 26.715C33.0953 25.7346 33.5242 24.7008 33.8328 23.627L39 22.7658ZM32.6015 30.7313L30.7312 32.6015L26.8187 29.8068C26.4353 30.0129 24.9026 31.2034 22.3591 31.7925L21.6124 31.9654L20.8224 36.7059H18.1776L17.3875 31.9654C16.9522 31.8342 15.0566 31.6008 12.8315 30.2125L12.1812 29.8068L8.26869 32.6015L6.39845 30.7313L9.19314 26.8188C8.98346 26.4289 7.79625 24.9013 7.20743 22.3592L7.03453 21.6125L2.29412 20.8224V18.1776L7.03461 17.3875C7.16568 16.9522 7.39922 15.0566 8.78747 12.8315L9.19322 12.1812L6.39852 8.26869L8.26876 6.39845L12.1813 9.19314C12.5712 8.98346 14.0987 7.79625 16.6409 7.20743L17.3876 7.03453L18.1776 2.29412H20.8224L21.6124 7.03461C22.0475 7.1656 23.9435 7.39922 26.1685 8.78747L26.8187 9.19322L30.7312 6.39852L32.6015 8.26876L29.8068 12.1813C30.0164 12.5712 31.2037 14.0987 31.7925 16.6409L31.9654 17.3876L36.7059 18.1776V20.8224L31.9654 21.6125C31.8343 22.0478 31.6008 23.9434 30.2125 26.1685L29.8068 26.8188L32.6015 30.7313Z" fill="#FF008A"/>
<path d="M19.5 9.74999C14.1238 9.74999 9.75 14.1238 9.75 19.5C9.75 24.8762 14.1238 29.25 19.5 29.25C24.8762 29.25 29.25 24.8762 29.25 19.5C29.25 14.1238 24.8762 9.74999 19.5 9.74999ZM16.1526 26.1608C16.5124 24.6455 17.8762 23.5147 19.5 23.5147C21.1238 23.5147 22.4876 24.6455 22.8474 26.1608C20.7461 27.2212 18.2548 27.2217 16.1526 26.1608ZM17.7794 19.5C17.7794 18.5512 18.5512 17.7794 19.5 17.7794C20.4488 17.7794 21.2206 18.5512 21.2206 19.5C21.2206 20.4488 20.4488 21.2206 19.5 21.2206C18.5512 21.2206 17.7794 20.4488 17.7794 19.5ZM24.7921 24.7466C24.3337 23.6525 23.5451 22.7306 22.5522 22.1037C23.1515 21.4021 23.5147 20.493 23.5147 19.5C23.5147 17.2862 21.7137 15.4853 19.5 15.4853C17.2863 15.4853 15.4853 17.2862 15.4853 19.5C15.4853 20.4929 15.8484 21.4021 16.4478 22.1037C15.4549 22.7306 14.6663 23.6525 14.2079 24.7466C12.8711 23.3983 12.0441 21.544 12.0441 19.5C12.0441 15.3888 15.3888 12.0441 19.5 12.0441C23.6112 12.0441 26.9559 15.3888 26.9559 19.5C26.9559 21.544 26.1289 23.3983 24.7921 24.7466Z" fill="#FF008A"/>
</svg>
